<svg width="50" height="50" viewBox="0 0 50 50" fill="none" xmlns="http://www.w3.org/2000/svg">
<path d="M35.9375 1.17188H28.125C27.4778 1.17188 26.9531 1.69654 26.9531 2.34375V4.6875C26.9531 5.33471 27.4778 5.85938 28.125 5.85938H35.9375C36.5847 5.85938 37.1094 5.33471 37.1094 4.6875V2.34375C37.1094 1.69654 36.5847 1.17188 35.9375 1.17188Z" fill="#FFE602"/>
<path d="M13.2812 18.3594H5.46875C5.15795 18.3594 4.85988 18.4828 4.64011 18.7026C4.42034 18.9224 4.29688 19.2204 4.29688 19.5312C4.29688 19.8421 4.42034 20.1401 4.64011 20.3599C4.85988 20.5797 5.15795 20.7031 5.46875 20.7031H13.2812C13.5921 20.7031 13.8901 20.5797 14.1099 20.3599C14.3297 20.1401 14.4531 19.8421 14.4531 19.5312C14.4531 19.2204 14.3297 18.9224 14.1099 18.7026C13.8901 18.4828 13.5921 18.3594 13.2812 18.3594Z" fill="#FFE602"/>
<path d="M12.8906 28.9062C12.8906 28.5954 12.7672 28.2974 12.5474 28.0776C12.3276 27.8578 12.0296 27.7344 11.7188 27.7344H3.90625C3.59545 27.7344 3.29738 27.8578 3.07761 28.0776C2.85784 28.2974 2.73438 28.5954 2.73438 28.9062C2.73438 29.2171 2.85784 29.5151 3.07761 29.7349C3.29738 29.9547 3.59545 30.0781 3.90625 30.0781H11.7188C12.0296 30.0781 12.3276 29.9547 12.5474 29.7349C12.7672 29.5151 12.8906 29.2171 12.8906 28.9062Z" fill="#FFE602"/>
<path d="M12.5 32.4219H7.03125C6.72045 32.4219 6.42238 32.5453 6.20261 32.7651C5.98284 32.9849 5.85938 33.2829 5.85938 33.5938C5.85938 33.9046 5.98284 34.2026 6.20261 34.4224C6.42238 34.6422 6.72045 34.7656 7.03125 34.7656H12.5C12.8108 34.7656 13.1089 34.6422 13.3286 34.4224C13.5484 34.2026 13.6719 33.9046 13.6719 33.5938C13.6719 33.2829 13.5484 32.9849 13.3286 32.7651C13.1089 32.5453 12.8108 32.4219 12.5 32.4219Z" fill="#FFE602"/>
<path d="M12.8906 24.2188C12.8906 23.9079 12.7672 23.6099 12.5474 23.3901C12.3276 23.1703 12.0296 23.0469 11.7188 23.0469H1.5625C1.2517 23.0469 0.953628 23.1703 0.733859 23.3901C0.51409 23.6099 0.390625 23.9079 0.390625 24.2188C0.390625 24.5296 0.51409 24.8276 0.733859 25.0474C0.953628 25.2672 1.2517 25.3906 1.5625 25.3906H11.7188C12.0296 25.3906 12.3276 25.2672 12.5474 25.0474C12.7672 24.8276 12.8906 24.5296 12.8906 24.2188Z" fill="#FFE602"/>
<path d="M32.0312 26.5625V13.2812C24.7079 13.2812 18.75 19.2392 18.75 26.5625C18.75 33.8858 24.7079 39.8438 32.0312 39.8438C39.3546 39.8438 45.3125 33.8858 45.3125 26.5625H32.0312Z" fill="#FFE602"/>
<path d="M44.8846 14.5853L46.1411 13.3286C46.2514 13.2201 46.3391 13.0909 46.3992 12.9483C46.4592 12.8058 46.4905 12.6527 46.4911 12.498C46.4918 12.3433 46.4617 12.19 46.4028 12.047C46.3439 11.904 46.2573 11.774 46.1479 11.6646C46.0385 11.5552 45.9086 11.4686 45.7655 11.4097C45.6225 11.3508 45.4692 11.3208 45.3145 11.3214C45.1598 11.322 45.0068 11.3533 44.8642 11.4133C44.7216 11.4734 44.5924 11.5611 44.4839 11.6714L43.1761 12.9791C40.6575 10.9043 37.6091 9.57482 34.375 9.14062V7.03125H29.6875V9.14062C26.4535 9.57465 23.4051 10.904 20.8864 12.9785L19.5786 11.6708C19.4701 11.5605 19.3409 11.4728 19.1983 11.4128C19.0558 11.3527 18.9027 11.3214 18.748 11.3208C18.5933 11.3202 18.44 11.3502 18.297 11.4091C18.154 11.468 18.024 11.5546 17.9146 11.664C17.8052 11.7734 17.7186 11.9034 17.6597 12.0464C17.6008 12.1895 17.5708 12.3427 17.5714 12.4974C17.572 12.6521 17.6033 12.8052 17.6633 12.9477C17.7234 13.0903 17.8111 13.2195 17.9214 13.328L19.1779 14.5847C16.1391 17.8324 14.4499 22.1148 14.4531 26.5625C14.4531 36.2551 22.3387 44.1406 32.0313 44.1406C41.7238 44.1406 49.6094 36.2551 49.6094 26.5625C49.6125 22.115 47.9233 17.8329 44.8846 14.5853ZM32.0313 41.0156C29.1727 41.0156 26.3783 40.168 24.0015 38.5798C21.6247 36.9917 19.7722 34.7344 18.6783 32.0935C17.5844 29.4525 17.2982 26.5465 17.8558 23.7428C18.4135 20.9392 19.79 18.3639 21.8114 16.3426C23.8327 14.3213 26.408 12.9448 29.2116 12.3871C32.0152 11.8294 34.9213 12.1156 37.5622 13.2096C40.2032 14.3035 42.4605 16.156 44.0486 18.5328C45.6367 20.9096 46.4844 23.7039 46.4844 26.5625C46.4844 28.4605 46.1105 30.3399 45.3842 32.0935C44.6579 33.847 43.5933 35.4403 42.2512 36.7824C40.9091 38.1245 39.3158 39.1891 37.5622 39.9154C35.8087 40.6418 33.9293 41.0156 32.0313 41.0156Z" fill="#FFE602"/>
</svg>
