<svg width="54" height="54" viewBox="0 0 54 54" fill="none" xmlns="http://www.w3.org/2000/svg">
<g clip-path="url(#clip0_105_33)">
<path d="M14.6404 40.973L10.0743 40.3095L8.03218 36.1719H6.94438L4.90229 40.3095L0.336129 40.973L0 42.0076L3.30412 45.2283L2.52408 49.776L3.40421 50.4154L7.48828 48.2683L11.5723 50.4154L12.4525 49.776L11.6724 45.2283L14.9766 42.0076L14.6404 40.973Z" fill="#FFE602"/>
<path d="M54 42.0076L53.6639 40.973L49.0977 40.3095L47.0556 36.1719H45.9678L43.9257 40.3095L39.3596 40.973L39.0234 42.0076L42.3276 45.2283L41.5475 49.776L42.4277 50.4154L46.5117 48.2683L50.5958 50.4154L51.4759 49.776L50.6959 45.2283L54 42.0076Z" fill="#FFE602"/>
<path d="M34.1522 40.973L29.586 40.3095L27.5439 36.1719H26.4561L24.414 40.3095L19.8478 40.973L19.5117 42.0076L22.8158 45.2283L22.0358 49.776L22.9159 50.4154L27 48.2683L31.0841 50.4154L31.9642 49.776L31.1842 45.2283L34.4883 42.0076L34.1522 40.973Z" fill="#FFE602"/>
<path d="M27 3.58459C19.1199 3.58459 12.709 9.99551 12.709 17.8756C12.709 25.7557 19.1199 32.1666 27 32.1666C34.8801 32.1666 41.291 25.7557 41.291 17.8756C41.291 9.99551 34.8801 3.58459 27 3.58459ZM25.7774 22.9495L20.127 17.2991L22.3643 15.0618L25.7774 18.4749L31.6358 12.6165L33.8731 14.8538L25.7774 22.9495Z" fill="#FFE602"/>
</g>
<defs>
<clipPath id="clip0_105_33">
<rect width="54" height="54" fill="white"/>
</clipPath>
</defs>
</svg>
