<svg width="47" height="42" viewBox="0 0 47 42" fill="none" xmlns="http://www.w3.org/2000/svg">
<path d="M43.5237 34.3637H36.2452C31.6586 34.3637 27.927 30.938 27.927 26.7275C27.927 22.5169 31.6586 19.0913 36.2452 19.0913H43.5237C44.0984 19.0913 44.5635 18.6643 44.5635 18.1367V15.2731C44.5635 13.2715 42.8723 11.6436 40.7354 11.4858L34.7638 1.91064C34.2104 1.02507 33.3168 0.392127 32.2476 0.129303C31.1834 -0.131731 30.0706 0.00536342 29.1181 0.514277L8.64708 11.455H5.05174C2.75795 11.455 0.892578 13.1673 0.892578 15.2731V38.1819C0.892578 40.2876 2.75785 42 5.05174 42H40.4044C42.6982 42 44.5635 40.2877 44.5635 38.1819V35.3183C44.5635 34.7906 44.0984 34.3637 43.5237 34.3637ZM36.0534 7.82216L38.319 11.455H29.2562L36.0534 7.82216ZM12.7802 11.455L30.1649 2.16415C30.6351 1.91153 31.1844 1.84441 31.7094 1.9731C32.2404 2.10357 32.6832 2.41865 32.9584 2.85956L32.9605 2.86305L16.8852 11.455H12.7802Z" fill="#FFE602"/>
<path d="M43.5231 21.0004H36.2446C32.8043 21.0004 30.0059 23.5694 30.0059 26.7275C30.0059 29.8857 32.8043 32.4547 36.2446 32.4547H43.5231C45.2432 32.4547 46.6424 31.1702 46.6424 29.5911V23.864C46.6424 22.2849 45.2432 21.0004 43.5231 21.0004ZM36.2446 28.6366C35.0982 28.6366 34.165 27.7799 34.165 26.7275C34.165 25.6752 35.0982 24.8185 36.2446 24.8185C37.3909 24.8185 38.3241 25.6752 38.3241 26.7275C38.3242 27.7799 37.391 28.6366 36.2446 28.6366Z" fill="#FFE602"/>
</svg>
