<svg width="23" height="23" viewBox="0 0 23 23" fill="none" xmlns="http://www.w3.org/2000/svg">
<path d="M21.1842 15.1437C19.7655 15.1437 18.3758 14.9222 17.0587 14.4876C16.4159 14.266 15.686 14.4367 15.2635 14.8677L12.6524 16.8396C9.65638 15.2406 7.7389 13.3243 6.1616 10.35L8.08027 7.80064C8.56327 7.31764 8.73639 6.61067 8.52939 5.94853C8.09116 4.623 7.86845 3.23211 7.86845 1.81579C7.86845 0.814666 7.05378 0 6.05266 0L1.81579 0C0.814666 0 0 0.814666 0 1.81579C0 13.4962 9.50385 23 21.1842 23C22.1853 23 23 22.1853 23 21.1842V16.9595C23 15.9584 22.1853 15.1437 21.1842 15.1437Z" fill="#FFE602"/>
</svg>
